<?xml version="1.0" ?>
<!-- Uploaded to: SVG Repo, www.svgrepo.com, Generator: SVG Repo Mixer Tools -->
<svg width="800px" height="800px" viewBox="0 0 512 512" id="Layer_1" version="1.1" xml:space="preserve" xmlns="http://www.w3.org/2000/svg" xmlns:xlink="http://www.w3.org/1999/xlink">
<style type="text/css">
	.st0{fill:#4CC3F2;}
	.st1{fill:#CFF1FF;}
	.st2{fill:#FFFFFF;}
	.st3{fill:#0A557F;}
</style>
<g>
<polygon class="st0" points="332.3,47.4 364.1,15.6 401.1,52.6 304.6,149.1 309.9,154.4 278.1,186.2 272.8,180.9 210.9,242.8    194.3,196 216.8,173.4 238,194.7 310.7,122 289.5,100.7 337.6,52.7  "/>
<polygon class="st1" points="85.6,304.7 129.5,260.8 146.1,307.6 117.3,336.4  "/>
<path class="st1" d="M254.9,285.5c13,9.7,27.1,9.5,41.1-0.4l-10.8-10.8c-8.1,5-14.3,4-19.6,0.5l33.1-33.1l16.2,35.8l-45.1,45.1   L248,292.5L254.9,285.5z"/>
<polygon class="st0" points="325.3,424.9 260.9,489.3 172.8,367.7 237.2,303.3  "/>
<path class="st2" d="M249.1,403.8c2,0,3.9-0.8,5.3-2.2c1.4-1.4,2.2-3.3,2.2-5.3c0-2-0.8-3.9-2.2-5.3c-1.4-1.4-3.3-2.2-5.3-2.2   c-2,0-3.9,0.8-5.3,2.2c-1.4,1.4-2.2,3.3-2.2,5.3c0,2,0.8,3.9,2.2,5.3C245.2,403,247.1,403.8,249.1,403.8z"/>
<path class="st3" d="M191.9,368.4l70.9,97.8l42.9-42.9l-70.9-97.8L191.9,368.4z M264.6,443.2l-53-73.2l21.4-21.4l53,73.2   L264.6,443.2z"/>
<rect class="st3" height="15" transform="matrix(0.7071 -0.7071 0.7071 0.7071 -7.9044 350.0075)" width="67.3" x="384.9" y="177"/>
<rect class="st3" height="15" transform="matrix(0.7071 -0.7071 0.7071 0.7071 -47.6118 333.5654)" width="15" x="371.3" y="216.8"/>
<rect class="st3" height="15" transform="matrix(0.7071 -0.7071 0.7071 0.7071 -34.3133 257.7745)" width="15" x="286.5" y="162.8"/>
<rect class="st3" height="15" transform="matrix(0.7071 -0.7071 0.7071 0.7071 -26.1186 168.699)" width="67.3" x="156.9" y="108.4"/>
<rect class="st3" height="15" transform="matrix(0.7071 -0.7071 0.7071 0.7071 -65.827 152.2458)" width="15" x="143.4" y="148.1"/>
<rect class="st3" height="15" transform="matrix(0.7071 -0.7071 0.7071 0.7071 79.6923 255.4155)" width="15" x="340.7" y="24"/>
<rect class="st2" height="15" transform="matrix(0.7072 -0.707 0.707 0.7072 -24.9927 224.4524)" width="72.8" x="222.1" y="134.9"/>
<path class="st3" d="M369.4-0.3l-10.6,10.6L373,24.5v0l28.1,28.1l-96.5,96.5l10.6,10.6L382,92.9l22.2,22.2L161.3,358l-30.9-13.4   l153-153l-10.6-10.6l-61.9,61.9L194.3,196l22.5-22.5l21.2,21.2l72.7-72.7l-21.2-21.2l48-48l-10.6-10.6L64.3,304.7l48.6,48.6   l45.1,19.6l101,139.3l85.9-85.9L278.7,335l54.2-54.2l-22.8-50.4l115.3-115.3l-32.8-32.8l29.7-29.7L369.4-0.3z M278.9,111.4   l10.6,10.6L238,173.4l-10.6-10.6L278.9,111.4z M182.6,207.7l16.6,46.8l-14.8,14.8l-16.6-46.8L182.6,207.7z M156,234.2l16.6,46.8   l-14.8,14.8L141.2,249L156,234.2z M117.3,336.4l-31.7-31.7l43.9-43.9l16.6,46.8L117.3,336.4z M325.3,424.9l-64.4,64.4l-88.1-121.6   l64.4-64.4L325.3,424.9z M314.9,277.5l-45.1,45.1L248,292.5l7-7c13,9.7,27.1,9.5,41.1-0.4l-10.8-10.8c-8.1,5-14.3,4-19.6,0.5   l33.1-33.1L314.9,277.5z"/>
</g>
</svg>